<?xml version="1.0" encoding="UTF-8" standalone="no"?>
<!-- Created with Inkscape (http://www.inkscape.org/) -->

<svg
   width="156.07933mm"
   height="155.93607mm"
   viewBox="0 0 156.07933 155.93607"
   version="1.1"
   id="svg1"
   xml:space="preserve"
   xmlns:inkscape="http://www.inkscape.org/namespaces/inkscape"
   xmlns:sodipodi="http://sodipodi.sourceforge.net/DTD/sodipodi-0.dtd"
   xmlns="http://www.w3.org/2000/svg"
   xmlns:svg="http://www.w3.org/2000/svg"><sodipodi:namedview
     id="namedview1"
     pagecolor="#505050"
     bordercolor="#eeeeee"
     borderopacity="1"
     inkscape:showpageshadow="0"
     inkscape:pageopacity="0"
     inkscape:pagecheckerboard="0"
     inkscape:deskcolor="#505050"
     inkscape:document-units="mm" /><defs
     id="defs1" /><g
     inkscape:label="Camada 1"
     inkscape:groupmode="layer"
     id="layer1"
     transform="translate(-31.289752,-69.304197)"><path
       style="fill:#395B64"
       d="m 104.38406,225.15728 c -16.456059,-1.0911 -31.485961,-7.00734 -44.469275,-17.50452 -2.862013,-2.31398 -8.623127,-8.0699 -10.959691,-10.94983 -10.531066,-12.98003 -16.473165,-28.15902 -17.517155,-44.74729 -0.994931,-15.80874 3.045644,-31.99534 11.352307,-45.4775 3.445299,-5.59192 6.587069,-9.527117 11.56569,-14.486522 5.672783,-5.650887 11.181653,-9.774081 17.951067,-13.43574 9.250922,-5.003936 19.007162,-7.92646 30.249317,-9.061316 2.51433,-0.253813 11.03245,-0.253813 13.54678,0 16.38844,1.654355 30.14838,7.261396 42.64154,17.376019 4.12816,3.342209 9.66856,9.124338 13.11131,13.683359 10.92512,14.4675 16.51347,33.16195 15.36554,51.4017 -1.0444,16.59482 -6.9543,31.69983 -17.49677,44.71974 -2.35036,2.90268 -8.08898,8.63989 -10.98008,10.97738 -12.30461,9.94844 -25.90261,15.57711 -41.7179,17.26845 -2.64567,0.28294 -9.89439,0.41829 -12.64268,0.23607 z m 12.64268,-2.68799 c 14.75458,-1.6093 28.09335,-7.07393 39.48576,-16.17655 12.67748,-10.12938 21.90929,-24.31295 25.94571,-39.86247 4.06017,-15.64096 3.07107,-31.98887 -2.84566,-47.03307 -1.88254,-4.78666 -5.27942,-11.1167 -8.1899,-15.26176 -1.46284,-2.08335 -2.37327,-2.7493 -3.75866,-2.7493 -1.11901,0 -2.08052,0.29609 -2.98715,0.91988 -1.35631,0.93317 -2.09168,2.61311 -2.39382,5.46866 -0.28196,2.66478 -0.36779,12.04829 -0.15968,17.45775 0.32557,8.46275 -0.27509,15.79682 -1.62761,19.87285 -1.31957,3.97674 -4.5499,8.80564 -8.59987,12.85561 -8.11243,8.11243 -18.79914,12.65736 -32.02122,13.61824 -1.18534,0.0861 -2.48421,0.1569 -2.88638,0.15725 l -0.73122,6.2e-4 v -1.6053 -1.6053 l 0.88516,-0.0981 c 11.19718,-1.24094 19.80212,-5.85857 24.5709,-13.18538 1.06476,-1.63592 1.58632,-2.78226 2.38243,-5.23629 1.59587,-4.9194 2.01902,-9.00045 2.02454,-19.52572 0.007,-13.34128 0.98826,-21.20142 3.19981,-25.63111 1.88166,-3.76893 4.96898,-6.195059 9.29535,-7.304623 1.73095,-0.443929 4.57193,-0.567043 6.21007,-0.269115 0.67733,0.123188 1.25943,0.198748 1.29355,0.167913 0.1186,-0.107208 -3.33648,-3.689716 -5.38744,-5.586131 -5.406,-4.99864 -10.87411,-8.790058 -17.4578,-12.10468 -8.40598,-4.232076 -16.73968,-6.667937 -26.40081,-7.716702 -3.58921,-0.389627 -11.5356,-0.390807 -15.08618,-0.0022 -9.696237,1.061132 -17.997509,3.488219 -26.400805,7.718943 -6.583683,3.314622 -12.0518,7.10604 -17.457794,12.10468 -2.05096,1.896415 -5.506042,5.478923 -5.387439,5.586131 0.03411,0.03083 0.616211,-0.04472 1.29355,-0.167913 3.457472,-0.628811 7.973203,0.323052 10.963453,2.310969 3.932198,2.614128 5.924832,6.681498 6.885481,14.054678 0.585146,4.49112 0.724183,7.14718 0.857307,16.37738 0.167253,11.59655 0.311005,13.4298 1.389575,17.7212 0.891339,3.54644 2.014188,6.13599 3.655309,8.43001 3.883113,5.42793 9.875144,9.1849 17.820199,11.17314 1.541377,0.38573 4.430068,0.89848 6.111764,1.08486 l 0.88516,0.0981 v 1.6053 1.6053 l -0.73122,-6.2e-4 c -1.20947,-0.001 -4.924629,-0.29857 -6.811859,-0.54554 -6.597159,-0.86332 -12.919903,-2.86796 -18.164991,-5.75925 -8.259105,-4.55272 -15.448951,-12.29249 -18.309363,-19.70979 -1.402033,-3.63559 -2.199375,-12.02942 -1.865529,-19.63889 0.329769,-7.51655 0.140918,-17.41877 -0.380959,-19.97513 -0.614342,-3.0093 -2.189184,-4.53943 -4.823,-4.68607 -1.152047,-0.0641 -1.193951,-0.0535 -2.065599,0.52418 -1.036965,0.68724 -2.289568,2.37945 -4.670307,6.30936 -4.769117,7.87244 -8.229043,17.1835 -9.746186,26.22813 -0.814442,4.85539 -1.004469,7.27258 -1.004469,12.77707 0,5.50449 0.190027,7.92168 1.004469,12.77707 1.823594,10.87157 6.390286,21.90732 12.762414,30.84133 7.457625,10.45593 17.041323,18.6205 28.405797,24.19954 9.210635,4.52169 17.83585,6.80821 28.940822,7.67215 1.79504,0.13965 9.96974,-0.0506 12.08434,-0.28125 z M 96.090825,201.90936 c 0,-0.44886 0.0207,-0.46182 0.737361,-0.46182 1.728448,0 3.723604,-0.81714 5.094804,-2.08664 1.50821,-1.39634 2.33969,-3.40555 2.63113,-6.35792 0.10258,-1.03919 0.15737,-15.15335 0.15737,-40.54125 v -38.94705 l -2.57851,0.10538 c -3.578986,0.14628 -8.213157,0.63268 -9.535818,1.0009 -5.193664,1.44586 -8.135448,4.97544 -9.754511,11.70357 -0.275054,1.143 -0.521861,2.16479 -0.548458,2.27062 -0.0266,0.10583 -0.258352,0.19243 -0.515012,0.19243 h -0.466653 l -0.0015,-1.88578 c -0.0032,-4.1409 -0.622113,-12.85604 -1.169688,-16.47164 l -0.08743,-0.57728 h 29.27577 29.27578 l -0.0874,0.57728 c -0.54758,3.6156 -1.16646,12.33074 -1.16969,16.47164 l -10e-4,1.88578 h -0.46665 c -0.25666,0 -0.48842,-0.0866 -0.51502,-0.19243 -0.0266,-0.10583 -0.2734,-1.12762 -0.54845,-2.27062 -1.61907,-6.72813 -4.56085,-10.25771 -9.75451,-11.70357 -1.32267,-0.36822 -5.95683,-0.85462 -9.53584,-1.0009 l -2.5785,-0.10538 v 38.94705 c 0,25.3879 0.0548,39.50206 0.15737,40.54125 0.29143,2.95237 1.12291,4.96158 2.63113,6.35792 1.37121,1.2695 3.36637,2.08664 5.09481,2.08664 0.71666,0 0.73736,0.013 0.73736,0.46182 v 0.46182 H 109.32971 96.090825 Z"
       id="path2" /></g></svg>
